<?xml version="1.0" encoding="UTF-8"?>
<svg id="Layer_1" data-name="Layer 1" xmlns="http://www.w3.org/2000/svg" viewBox="0 0 800 300">
  <defs>
    <style>
      .cls-1 {
        fill: #fff;
      }
    </style>
  </defs>
  <rect class="cls-1" width="800" height="300"/>
  <g>
    <path d="M85.2114,182.2866c-1.6938-2.5713-2.5391-4.5898-2.5391-6.0547s.2104-2.5713.6348-3.3203c.4229-.7476.9917-1.4482,1.709-2.0996,1.6924-1.6265,3.3354-2.4414,4.9316-2.4414,1.5947,0,2.8154.3755,3.6621,1.123.8452.749,1.6436,2.2139,2.3926,4.3945.7476,2.1821,1.8218,4.2817,3.2227,6.2988,1.3994,2.0186,3.0762,3.7764,5.0293,5.2734,4.2314,3.1904,9.4072,4.7852,15.5273,4.7852,5.4033,0,9.9932-1.3335,13.7695-4.0039,3.9702-2.7344,5.957-6.1523,5.957-10.2539,0-4.1655-1.7915-7.8125-5.3711-10.9375-3.8423-3.3203-9.5381-6.4941-17.0898-9.5215-7.5532-3.0273-12.9243-5.5815-16.1133-7.666-3.1904-2.083-5.7954-4.2969-7.8125-6.6406-3.8423-4.4922-5.7617-9.6343-5.7617-15.4297,0-6.6406,3.0107-12.1733,9.0332-16.6016,6.021-4.4268,13.5894-6.6406,22.7051-6.6406,7.8765,0,14.5171,1.6602,19.9219,4.9805,4.6875,2.9297,7.0312,6.0225,7.0312,9.2773,0,1.6938-.8638,3.1416-2.5879,4.3457-1.7256,1.2056-3.354,1.8066-4.8828,1.8066-1.5303,0-2.7192-.3081-3.5645-.9277-.8467-.6182-2.1162-2.2295-3.8086-4.834-3.3203-5.1421-8.3662-7.7148-15.1367-7.7148-7.6172,0-12.6631,2.2798-15.1367,6.8359-.7173,1.3032-1.0742,2.7021-1.0742,4.1992,0,1.4985.3081,2.9463.9277,4.3457.6182,1.4009,1.7729,2.8486,3.4668,4.3457,3.5796,2.9951,10.1562,6.479,19.7266,10.4492,18.75,7.7485,28.125,17.6758,28.125,29.7852,0,8.1392-3.2881,14.7798-9.8633,19.9219-6.6406,5.1436-15.1704,7.7148-25.5859,7.7148-9.2451,0-17.3828-2.5713-24.4141-7.7148-2.9951-2.1484-5.3389-4.5073-7.0312-7.0801Z"/>
    <path d="M162.978,151.2808c0-6.314,1.1382-12.4346,3.418-18.3594,2.2783-5.9233,5.501-11.1328,9.668-15.625,9.1143-9.8296,20.4741-14.7461,34.082-14.7461,15.103,0,26.7241,4.5259,34.8633,13.5742,7.3564,8.2031,11.0352,18.8477,11.0352,31.9336,0,13.2173-4.3945,24.6431-13.1836,34.2773-8.9844,9.8311-20.3125,14.7461-33.9844,14.7461-15.1045,0-26.6938-4.5244-34.7656-13.5742-7.4219-8.2031-11.1328-18.9453-11.1328-32.2266ZM179.4819,147.1792c0,6.3813.8789,12.3384,2.6367,17.8711,1.7578,5.5342,4.1655,10.124,7.2266,13.7695,6.0547,7.4219,13.7041,11.1328,22.9492,11.1328,8.2031,0,14.876-3.2549,20.0195-9.7656,5.3374-6.7705,8.0078-15.4937,8.0078-26.1719,0-14.1265-3.2563-25.1953-9.7656-33.2031-6.1201-7.3564-13.8032-11.0352-23.0469-11.0352-8.2031,0-14.8774,3.2563-20.0195,9.7656-5.3389,6.772-8.0078,15.9834-8.0078,27.6367Z"/>
    <path d="M267.3657,149.9136c0-6.8999,1.2529-13.2964,3.7598-19.1895,2.5054-5.8916,5.9082-10.9209,10.2051-15.0879,9.1143-8.7236,20.6055-13.0859,34.4727-13.0859,8.2031.2607,15.332,2.1821,21.3867,5.7617,6.1846,3.5811,9.4072,7.9756,9.668,13.1836,0,2.7998-1.8555,4.6553-5.5664,5.5664-.9766.1953-1.8555.293-2.6367.293-2.9951,0-5.4365-2.0508-7.3242-6.1523-3.7109-7.7471-9.9946-11.6211-18.8477-11.6211-7.8125,0-14.3555,3.2227-19.6289,9.668-5.6001,6.8359-8.3984,15.854-8.3984,27.0508,0,12.436,2.896,22.4287,8.6914,29.9805,6.0547,7.9438,14.3218,11.9141,24.8047,11.9141,7.1611,0,13.4429-2.7344,18.8477-8.2031,2.3438-2.3438,4.1016-3.5156,5.2734-3.5156,2.4077,0,3.6133,1.2056,3.6133,3.6133,0,2.3438-2.3115,5.2095-6.9336,8.5938-7.4873,5.6001-16.6992,8.3984-27.6367,8.3984-13.0859,0-23.7305-4.4585-31.9336-13.3789-7.8779-8.6577-11.8164-19.9219-11.8164-33.7891Z"/>
    <path d="M360.9194,196.105c-4.3623,0-6.543-1.2056-6.543-3.6133,0-1.8877,1.2041-2.832,3.6133-2.832l4.8828.4883c1.4971,0,2.7344-.2764,3.7109-.8301.9766-.5522,1.7241-1.7412,2.2461-3.5645,1.0405-3.3203,1.5625-10.6768,1.5625-22.0703v-29.1992c0-6.6406-.4072-10.791-1.2207-12.4512-.8149-1.6602-1.7915-2.7983-2.9297-3.418-1.1396-.6182-2.9951-1.123-5.5664-1.5137-2.5728-.3906-3.8574-1.3994-3.8574-3.0273,0-1.4971,1.6602-2.5713,4.9805-3.2227,7.7471-1.6265,13.0859-3.2549,16.0156-4.8828,3.9702-2.2783,6.6895-3.418,8.1543-3.418s2.1973.749,2.1973,2.2461c0,.7173-.1465,1.4648-.4395,2.2461s-.6025,1.7256-.9277,2.832c-.522,2.2139-.9126,6.3813-1.1719,12.5,5.6641-9.5049,12.5-15.4297,20.5078-17.7734,2.3438-.7158,4.9639-1.0742,7.8613-1.0742,2.896,0,5.4688,1.042,7.7148,3.125,2.2461,2.0845,3.3691,4.2969,3.3691,6.6406s-.2607,4.0693-.7812,5.1758c-.522,1.1079-1.1719,2.0508-1.9531,2.832-1.6938,1.6938-3.2075,2.5391-4.541,2.5391-1.335,0-2.3604-.3418-3.0762-1.0254-.7173-.6836-1.5303-1.9365-2.4414-3.7598-1.6279-3.2549-3.4517-4.8828-5.4688-4.8828-2.0186,0-3.9399.4395-5.7617,1.3184-1.8232.8789-3.647,2.1973-5.4688,3.9551-3.9717,3.7109-7.3242,8.7568-10.0586,15.1367v29.1016c0,12.3701.3418,19.6455,1.0254,21.8262.6836,2.1821,1.5288,3.4834,2.5391,3.9062,1.0088.4243,2.3926.6348,4.1504.6348l8.6914-.7812c1.3018,0,2.3438.3096,3.125.9277.7812.6196,1.1719,1.3838,1.1719,2.2949,0,2.4077-2.3774,3.6133-7.1289,3.6133l-20.6055-1.4648c-3.3203,0-6.4619.2441-9.4238.7324-2.9634.4883-5.6807.7324-8.1543.7324Z"/>
    <path d="M519.5703,181.5542c1.8877,0,2.832.8638,2.832,2.5879,0,1.7256-1.8892,3.3691-5.6641,4.9316-3.7764,1.5625-6.4131,2.9785-7.9102,4.248-1.4985,1.2695-2.6045,2.2124-3.3203,2.832-.7173.6182-1.5625.9277-2.5391.9277-1.9531,0-3.5811-.8149-4.8828-2.4414-1.3032-1.6265-3.061-5.1104-5.2734-10.4492-3.7109,4.2329-8.2197,7.4385-13.5254,9.6191-5.3071,2.1807-10.5635,3.2715-15.7715,3.2715-9.8311,0-17.4482-2.5054-22.8516-7.5195-5.4048-5.0127-8.1055-11.8804-8.1055-20.6055s4.085-15.8037,12.2559-21.2402c8.1694-5.4351,18.6035-8.1543,31.2988-8.1543,3.7749,0,8.7554.6514,14.9414,1.9531v-7.6172c0-16.7314-7.0649-25.0977-21.1914-25.0977-7.4873,0-12.9883,3.4517-16.5039,10.3516-3.061,6.186-6.0547,9.2773-8.9844,9.2773-2.1484,0-4.0205-.6182-5.6152-1.8555-1.5962-1.2358-2.3926-2.7983-2.3926-4.6875,0-1.8877.9766-3.9873,2.9297-6.2988,1.9531-2.3101,4.5562-4.4097,7.8125-6.2988,7.6812-4.4922,16.1133-6.7383,25.293-6.7383,16.2749,0,26.79,5.3071,31.543,15.918,1.7578,3.7764,2.6367,8.3984,2.6367,13.8672v38.9648c0,5.0142.4883,8.2368,1.4648,9.668.9766,1.4326,2.3438,2.1484,4.1016,2.1484s3.189-.2593,4.2969-.7812c1.1064-.5205,2.1484-.7812,3.125-.7812ZM491.0547,150.5972c-4.6875-2.6689-10.6123-4.0039-17.7734-4.0039s-12.9072,1.7915-17.2363,5.3711c-4.3306,3.5811-6.4941,8.3833-6.4941,14.4043s1.6602,11.0352,4.9805,15.0391,7.5835,6.0059,12.793,6.0059c11.1328,0,19.1406-3.6455,24.0234-10.9375-.1953-1.8218-.293-3.8408-.293-6.0547v-19.8242Z"/>
    <path d="M580.3696,112.2183c0,1.7578-1.042,2.6367-3.125,2.6367l-27.7344-.293v54.1016c0,10.0923,2.4414,16.0811,7.3242,17.9688,1.4971.5859,3.2549.8789,5.2734.8789,2.0171,0,3.8574-.3418,5.5176-1.0254s3.1401-1.416,4.4434-2.1973c1.3018-.7812,2.4077-1.5137,3.3203-2.1973.9111-.6836,1.7729-1.0254,2.5879-1.0254.8135,0,1.5459.4561,2.1973,1.3672.6499.9126.9766,1.8232.9766,2.7344,0,2.2798-2.8975,5.0142-8.6914,8.2031-4.4282,2.4736-9.9946,3.7109-16.6992,3.7109s-11.9478-2.3926-15.7227-7.1777c-3.7764-4.7852-5.6641-11.4092-5.6641-19.873v-55.7617h-5.957c-4.6875,0-7.0312-1.2041-7.0312-3.6133,0-1.7578,1.3018-2.9619,3.9062-3.6133,2.603-.6499,4.8491-1.8066,6.7383-3.4668,1.8877-1.6602,3.4331-3.5479,4.6387-5.6641,1.2041-2.1147,2.1636-4.312,2.8809-6.5918.7158-2.2783,1.3672-4.3608,1.9531-6.25,1.4312-4.2969,3.0596-6.4453,4.8828-6.4453,2.083,0,3.125,1.8555,3.125,5.5664v22.0703l27.4414-.5859c1.3672,0,2.4414,1.6279,3.2227,4.8828.1299.7173.1953,1.2695.1953,1.6602Z"/>
    <path d="M596.312,196.105c-4.3623,0-6.543-1.2056-6.543-3.6133,0-1.8877,1.2041-2.832,3.6133-2.832l4.8828.4883c1.4971,0,2.7344-.2764,3.7109-.8301.9766-.5522,1.7578-1.7412,2.3438-3.5645,1.0405-3.2549,1.5625-10.6108,1.5625-22.0703v-29.3945c0-6.4453-.4395-10.5303-1.3184-12.2559-.8789-1.7241-1.8721-2.896-2.9785-3.5156-1.1079-.6182-2.9463-1.1064-5.5176-1.4648-2.5728-.3569-3.8574-1.3823-3.8574-3.0762,0-1.4971,1.6924-2.603,5.0781-3.3203,7.7471-1.5625,13.0859-3.1572,16.0156-4.7852,4.0361-2.2783,6.8022-3.418,8.3008-3.418,1.4971,0,2.2461.749,2.2461,2.2461,0,.7173-.1313,1.4648-.3906,2.2461-1.4985,4.4922-2.2461,13.3467-2.2461,26.5625v30.1758c0,11.4595.4058,18.457,1.2207,20.9961.8135,2.5391,1.709,4.0864,2.6855,4.6387.9766.5537,2.2124.8301,3.7109.8301l4.8828-.4883c2.4077,0,3.6133.9443,3.6133,2.832,0,2.4077-2.1821,3.6133-6.543,3.6133-2.4751,0-5.127-.2441-7.959-.7324s-5.876-.7324-9.1309-.7324-6.3477.2441-9.2773.7324-5.6318.7324-8.1055.7324ZM623.1675,73.3999c0,2.7681-.9277,5.1118-2.7832,7.0312-1.8555,1.9209-4.3623,2.8809-7.5195,2.8809s-5.6001-.9277-7.3242-2.7832c-1.7256-1.8555-2.5879-3.8726-2.5879-6.0547,0-2.1807.293-3.8574.8789-5.0293s1.3335-2.1807,2.2461-3.0273c2.0171-1.7578,4.4756-2.6367,7.373-2.6367,2.896,0,5.2397.9126,7.0312,2.7344,1.79,1.8232,2.6855,4.1182,2.6855,6.8848Z"/>
    <path d="M640.9604,149.9136c0-6.8999,1.2529-13.2964,3.7598-19.1895,2.5054-5.8916,5.9082-10.9209,10.2051-15.0879,9.1143-8.7236,20.6055-13.0859,34.4727-13.0859,8.2031.2607,15.332,2.1821,21.3867,5.7617,6.1846,3.5811,9.4072,7.9756,9.668,13.1836,0,2.7998-1.8555,4.6553-5.5664,5.5664-.9766.1953-1.8555.293-2.6367.293-2.9951,0-5.4365-2.0508-7.3242-6.1523-3.7109-7.7471-9.9941-11.6211-18.8477-11.6211-7.8125,0-14.3555,3.2227-19.6289,9.668-5.6001,6.8359-8.3984,15.854-8.3984,27.0508,0,12.436,2.896,22.4287,8.6914,29.9805,6.0547,7.9438,14.3223,11.9141,24.8047,11.9141,7.1611,0,13.4434-2.7344,18.8477-8.2031,2.3438-2.3438,4.1016-3.5156,5.2734-3.5156,2.4082,0,3.6133,1.2056,3.6133,3.6133,0,2.3438-2.3115,5.2095-6.9336,8.5938-7.4873,5.6001-16.6992,8.3984-27.6367,8.3984-13.0859,0-23.7305-4.4585-31.9336-13.3789-7.8779-8.6577-11.8164-19.9219-11.8164-33.7891Z"/>
  </g>
</svg>