<?xml version="1.0" encoding="UTF-8"?>
<svg id="Layer_1" data-name="Layer 1" xmlns="http://www.w3.org/2000/svg" viewBox="0 0 300 300">
  <defs>
    <style>
      .cls-1 {
        fill: #fff;
      }
    </style>
  </defs>
  <rect class="cls-1" width="300" height="300"/>
  <path d="M86.6953,216.3916c-3.3877-5.1421-5.0781-9.1797-5.0781-12.1094s.4209-5.1421,1.2695-6.6406c.8447-1.4951,1.9834-2.896,3.418-4.1992,3.3838-3.2529,6.6709-4.8828,9.8633-4.8828,3.1885,0,5.6299.751,7.3242,2.2461,1.6904,1.4985,3.2861,4.4282,4.7852,8.7891,1.4951,4.3643,3.6436,8.5635,6.4453,12.5977,2.7979,4.0376,6.1523,7.5532,10.0586,10.5469,8.4619,6.3813,18.8135,9.5703,31.0547,9.5703,10.8057,0,19.9854-2.667,27.5391-8.0078,7.9404-5.4688,11.9141-12.3047,11.9141-20.5078,0-8.3311-3.583-15.625-10.7422-21.875-7.6846-6.6406-19.0771-12.9883-34.1797-19.043-15.1064-6.0547-25.8486-11.1631-32.2266-15.332-6.3818-4.1655-11.5908-8.5938-15.625-13.2812-7.6846-8.9844-11.5234-19.2686-11.5234-30.8594,0-13.2812,6.0205-24.3467,18.0664-33.2031,12.042-8.853,27.1787-13.2812,45.4102-13.2812,15.7529,0,29.0342,3.3203,39.8438,9.9609,9.375,5.8594,14.0625,12.0454,14.0625,18.5547,0,3.3877-1.7275,6.2837-5.1758,8.6914-3.4521,2.4111-6.708,3.6133-9.7656,3.6133-3.0615,0-5.4385-.6162-7.1289-1.8555-1.6943-1.2358-4.2334-4.4585-7.6172-9.668-6.6406-10.2842-16.7334-15.4297-30.2734-15.4297-15.2344,0-25.3271,4.5596-30.2734,13.6719-1.4346,2.6064-2.1484,5.4048-2.1484,8.3984,0,2.9971.6162,5.8931,1.8555,8.6914,1.2354,2.8018,3.5459,5.6978,6.9336,8.6914,7.1592,5.9907,20.3125,12.958,39.4531,20.8984,37.5,15.4971,56.25,35.3516,56.25,59.5703,0,16.2783-6.5771,29.5596-19.7266,39.8438-13.2812,10.2876-30.3408,15.4297-51.1719,15.4297-18.4912,0-34.7656-5.1421-48.8281-15.4297-5.9912-4.2969-10.6787-9.0146-14.0625-14.1602Z"/>
</svg>